<?xml version="1.0" encoding="UTF-8"?>
<svg id="Layer_2" data-name="Layer 2" xmlns="http://www.w3.org/2000/svg" viewBox="0 0 1932.55 444.14">
  <defs>
    <style>
      .cls-1, .cls-2, .cls-3 {
        stroke-width: 0px;
      }

      .cls-2 {
        fill: #b1b1b1;
      }

      .cls-3 {
        fill: #fff;
      }
    </style>
  </defs>
  <g id="Texto">
    <g>
      <path class="cls-1" d="M148.79,222.08c-.26,0-.51-.02-.77-.02h-1.42s2.19.02,2.19.02Z"/>
      <g>
        <path class="cls-3" d="M307.36,215.21h-.14v133.08c0,2.66,2.16,4.82,4.82,4.82h57.01c2.66,0,4.82-2.16,4.82-4.82v-192.33h58.43c2.66,0,4.82-2.16,4.82-4.82v-55.38c0-2.76-2.26-4.93-5.02-4.82-67.57,2.57-121.9,56.76-124.73,124.27Z"/>
        <path class="cls-3" d="M132.57,91h-66.85V4.82c0-2.66-2.16-4.82-4.82-4.82H4.82C2.16,0,0,2.16,0,4.82v25.34c0,71.48,57.75,125.96,129.13,126.34h25.31s6.58.01,6.58.01c19.96,0,36.15,16.18,36.15,36.15v58.27c0,19.96-16.18,36.15-36.15,36.15h-58.23c-19.96,0-36.15-16.18-36.15-36.15v-73.18c0-2.66-2.16-4.82-4.82-4.82H4.82c-2.66,0-4.82,2.16-4.82,4.82v45.82c0,74.76,65.42,134.8,141.25,129.88,63.01-4.08,113.4-54.15,120.6-116.88,9.05-78.78-52.31-145.57-129.28-145.57Z"/>
        <path class="cls-3" d="M590.67,353.14h66.85v86.18c0,2.66,2.16,4.82,4.82,4.82h56.08c2.66,0,4.82-2.16,4.82-4.82v-25.34c0-114.15-57.75-125.96-129.13-126.34h-25.31s-6.58-.01-6.58-.01c-19.96,0-36.15-16.18-36.15-36.15v-58.27c0-19.96,16.18-36.15,36.15-36.15h58.23c19.96,0,36.15,16.18,36.15,36.15v73.56c0,2.66,2.16,4.82,4.82,4.82h57.01c2.66,0,4.82-2.16,4.82-4.82v-46.19c0-74.76-65.42-134.8-141.25-129.88-63.01,4.08-113.4,54.15-120.6,116.88-9.05,78.78,52.31,145.57,129.28,145.57Z"/>
      </g>
      <g>
        <path class="cls-2" d="M851.96,124.79h80.31c15.22,0,28.01,2.71,38.37,8.11,10.36,5.41,18.11,12.79,23.24,22.14,5.13,9.35,7.7,19.8,7.7,31.35s-2.57,22-7.7,31.35c-5.13,9.35-12.88,16.73-23.24,22.14-10.36,5.41-23.15,8.11-38.37,8.11h-52.81v74.81h-27.5V124.79ZM932,223.53c13.93,0,24.34-3.34,31.22-10.04,6.88-6.69,10.31-15.72,10.31-27.09s-3.44-20.39-10.31-27.09c-6.87-6.69-17.28-10.04-31.22-10.04h-52.53v74.26h52.53Z"/>
        <path class="cls-2" d="M1053.97,316.49c-10.54-6.42-18.66-15.31-24.34-26.68-5.68-11.37-8.52-24.2-8.52-38.5s2.84-27.13,8.52-38.51c5.68-11.37,13.8-20.26,24.34-26.68,10.54-6.42,22.97-9.63,37.27-9.63s26.72,3.21,37.27,9.63c10.54,6.42,18.66,15.31,24.34,26.68,5.68,11.37,8.53,24.2,8.53,38.51s-2.85,27.14-8.53,38.5c-5.68,11.37-13.8,20.26-24.34,26.68-10.55,6.42-22.96,9.63-37.27,9.63s-26.72-3.21-37.27-9.63ZM1123.42,289.13c7.33-9.44,11-22.05,11-37.82s-3.67-28.37-11-37.82c-7.34-9.44-18.06-14.16-32.18-14.16s-24.85,4.72-32.18,14.16c-7.34,9.45-11,22.05-11,37.82s3.66,28.37,11,37.82c7.33,9.45,18.06,14.16,32.18,14.16s24.84-4.72,32.18-14.16Z"/>
        <path class="cls-2" d="M1187.77,179.8h24.76v24.75c5.13-9.72,11.5-16.55,19.11-20.49,7.61-3.94,16.27-5.91,25.99-5.91h11v24.75h-11.83c-13.39,0-23.93,3.44-31.63,10.31-7.7,6.88-11.55,18.57-11.55,35.07v74.53h-25.85v-143.02Z"/>
        <path class="cls-2" d="M1332.99,135.79v44h37.96v22h-37.96v84.44c0,5.14,1.14,8.85,3.44,11.14,2.29,2.3,6,3.44,11.14,3.44h23.38v22h-28.88c-12.47,0-21.45-2.66-26.95-7.98-5.5-5.32-8.25-13.84-8.25-25.58v-87.46h-26.13v-22h26.13v-44h26.13Z"/>
        <path class="cls-2" d="M1417.42,132.63c5.5-5.23,14.48-7.84,26.95-7.84h28.88v22h-23.38c-5.13,0-8.85,1.15-11.14,3.44-2.3,2.29-3.44,5.91-3.44,10.86v18.7h37.96v22h-37.96v121.01h-26.13v-121.01h-26.13v-22h26.13v-21.45c0-11.92,2.75-20.49,8.25-25.72Z"/>
        <path class="cls-2" d="M1523.45,316.49c-10.54-6.42-18.66-15.31-24.34-26.68-5.68-11.37-8.52-24.2-8.52-38.5s2.84-27.13,8.52-38.51c5.68-11.37,13.8-20.26,24.34-26.68,10.54-6.42,22.97-9.63,37.27-9.63s26.72,3.21,37.27,9.63c10.54,6.42,18.66,15.31,24.34,26.68,5.68,11.37,8.53,24.2,8.53,38.51s-2.85,27.14-8.53,38.5c-5.68,11.37-13.8,20.26-24.34,26.68-10.55,6.42-22.96,9.63-37.27,9.63s-26.72-3.21-37.27-9.63ZM1592.89,289.13c7.33-9.44,11-22.05,11-37.82s-3.67-28.37-11-37.82c-7.34-9.44-18.06-14.16-32.18-14.16s-24.85,4.72-32.18,14.16c-7.34,9.45-11,22.05-11,37.82s3.66,28.37,11,37.82c7.33,9.45,18.06,14.16,32.18,14.16s24.84-4.72,32.18-14.16Z"/>
        <path class="cls-2" d="M1683.1,124.79v161.45c0,5.14,1.14,8.85,3.44,11.14,2.29,2.3,6.01,3.44,11.14,3.44h19.25v22h-24.48c-12.47,0-21.45-2.66-26.95-7.98-5.5-5.32-8.25-13.84-8.25-25.58V124.79h25.85Z"/>
        <path class="cls-2" d="M1740.3,124.79h25.86v29.15h-25.86v-29.15ZM1740.3,179.8h26.13v143.02h-26.13v-143.02Z"/>
        <path class="cls-2" d="M1825.15,316.49c-10.54-6.42-18.66-15.31-24.34-26.68-5.68-11.37-8.52-24.2-8.52-38.5s2.84-27.13,8.52-38.51c5.68-11.37,13.8-20.26,24.34-26.68,10.54-6.42,22.97-9.63,37.27-9.63s26.72,3.21,37.27,9.63c10.54,6.42,18.66,15.31,24.34,26.68,5.68,11.37,8.53,24.2,8.53,38.51s-2.85,27.14-8.53,38.5c-5.68,11.37-13.8,20.26-24.34,26.68-10.55,6.42-22.96,9.63-37.27,9.63s-26.72-3.21-37.27-9.63ZM1894.6,289.13c7.33-9.44,11-22.05,11-37.82s-3.67-28.37-11-37.82c-7.34-9.44-18.06-14.16-32.18-14.16s-24.85,4.72-32.18,14.16c-7.34,9.45-11,22.05-11,37.82s3.66,28.37,11,37.82c7.33,9.45,18.06,14.16,32.18,14.16s24.84-4.72,32.18-14.16Z"/>
      </g>
    </g>
  </g>
</svg>